<mxfile host="app.diagrams.net" modified="2020-11-21T05:48:17.839Z" agent="5.0 (Macintosh; Intel Mac OS X 10_15_7) AppleWebKit/537.36 (KHTML, like Gecko) Chrome/86.0.4240.111 Safari/537.36" etag="0x1m-ylukqd6JK4fllvu" version="13.10.0" type="github" pages="2">
  <diagram id="srcbrR8dubsIR0HigiFR" name="读取二进制图像">
    <mxGraphModel dx="652" dy="423" grid="1" gridSize="10" guides="1" tooltips="1" connect="1" arrows="1" fold="1" page="1" pageScale="1" pageWidth="827" pageHeight="1169" math="0" shadow="0">
      <root>
        <mxCell id="0" />
        <mxCell id="1" parent="0" />
        <mxCell id="A80v5EPzU_mnToUGICA3-12" style="edgeStyle=orthogonalEdgeStyle;rounded=0;orthogonalLoop=1;jettySize=auto;html=1;exitX=1;exitY=0.5;exitDx=0;exitDy=0;entryX=0;entryY=0.5;entryDx=0;entryDy=0;strokeColor=#006666;" edge="1" parent="1" source="A80v5EPzU_mnToUGICA3-1" target="A80v5EPzU_mnToUGICA3-5">
          <mxGeometry relative="1" as="geometry" />
        </mxCell>
        <mxCell id="A80v5EPzU_mnToUGICA3-16" style="edgeStyle=orthogonalEdgeStyle;rounded=0;orthogonalLoop=1;jettySize=auto;html=1;exitX=0.5;exitY=1;exitDx=0;exitDy=0;entryX=0.5;entryY=0;entryDx=0;entryDy=0;" edge="1" parent="1" source="A80v5EPzU_mnToUGICA3-1" target="A80v5EPzU_mnToUGICA3-2">
          <mxGeometry relative="1" as="geometry" />
        </mxCell>
        <mxCell id="A80v5EPzU_mnToUGICA3-1" value="&lt;font face=&quot;Times New Roman&quot;&gt;打开二进制文件&lt;/font&gt;" style="rounded=1;whiteSpace=wrap;html=1;fillColor=#dae8fc;strokeColor=#6c8ebf;" vertex="1" parent="1">
          <mxGeometry x="160" y="240" width="140" height="50" as="geometry" />
        </mxCell>
        <mxCell id="A80v5EPzU_mnToUGICA3-13" style="edgeStyle=orthogonalEdgeStyle;rounded=0;orthogonalLoop=1;jettySize=auto;html=1;exitX=1;exitY=0.5;exitDx=0;exitDy=0;entryX=0;entryY=0.5;entryDx=0;entryDy=0;strokeColor=#006666;" edge="1" parent="1" source="A80v5EPzU_mnToUGICA3-2" target="A80v5EPzU_mnToUGICA3-6">
          <mxGeometry relative="1" as="geometry" />
        </mxCell>
        <mxCell id="A80v5EPzU_mnToUGICA3-17" style="edgeStyle=orthogonalEdgeStyle;rounded=0;orthogonalLoop=1;jettySize=auto;html=1;exitX=0.5;exitY=1;exitDx=0;exitDy=0;entryX=0.5;entryY=0;entryDx=0;entryDy=0;strokeColor=#000000;" edge="1" parent="1" source="A80v5EPzU_mnToUGICA3-2" target="A80v5EPzU_mnToUGICA3-3">
          <mxGeometry relative="1" as="geometry" />
        </mxCell>
        <mxCell id="A80v5EPzU_mnToUGICA3-2" value="&lt;font face=&quot;Times New Roman&quot;&gt;数据解析&lt;br&gt;魔数、图像数量、高、宽&lt;br&gt;&lt;/font&gt;" style="rounded=1;whiteSpace=wrap;html=1;fillColor=#dae8fc;strokeColor=#6c8ebf;" vertex="1" parent="1">
          <mxGeometry x="160" y="320" width="140" height="50" as="geometry" />
        </mxCell>
        <mxCell id="A80v5EPzU_mnToUGICA3-14" style="edgeStyle=orthogonalEdgeStyle;rounded=0;orthogonalLoop=1;jettySize=auto;html=1;exitX=1;exitY=0.5;exitDx=0;exitDy=0;entryX=0;entryY=0.5;entryDx=0;entryDy=0;strokeColor=#006666;" edge="1" parent="1" source="A80v5EPzU_mnToUGICA3-3" target="A80v5EPzU_mnToUGICA3-7">
          <mxGeometry relative="1" as="geometry" />
        </mxCell>
        <mxCell id="A80v5EPzU_mnToUGICA3-18" style="edgeStyle=orthogonalEdgeStyle;rounded=0;orthogonalLoop=1;jettySize=auto;html=1;exitX=0.5;exitY=1;exitDx=0;exitDy=0;entryX=0.5;entryY=0;entryDx=0;entryDy=0;strokeColor=#000000;" edge="1" parent="1" source="A80v5EPzU_mnToUGICA3-3" target="A80v5EPzU_mnToUGICA3-4">
          <mxGeometry relative="1" as="geometry" />
        </mxCell>
        <mxCell id="A80v5EPzU_mnToUGICA3-3" value="&lt;font face=&quot;Times New Roman&quot;&gt;数据解析&lt;br&gt;像素值&lt;br&gt;&lt;/font&gt;" style="rounded=1;whiteSpace=wrap;html=1;fillColor=#dae8fc;strokeColor=#6c8ebf;" vertex="1" parent="1">
          <mxGeometry x="160" y="400" width="140" height="50" as="geometry" />
        </mxCell>
        <mxCell id="A80v5EPzU_mnToUGICA3-15" style="edgeStyle=orthogonalEdgeStyle;rounded=0;orthogonalLoop=1;jettySize=auto;html=1;exitX=1;exitY=0.5;exitDx=0;exitDy=0;entryX=0;entryY=0.5;entryDx=0;entryDy=0;strokeColor=#006666;" edge="1" parent="1" source="A80v5EPzU_mnToUGICA3-4" target="A80v5EPzU_mnToUGICA3-8">
          <mxGeometry relative="1" as="geometry" />
        </mxCell>
        <mxCell id="A80v5EPzU_mnToUGICA3-4" value="&lt;font face=&quot;Times New Roman&quot;&gt;转换为numpy数组&lt;br&gt;images[num_images, num_rows, num_cols]&lt;br&gt;&lt;/font&gt;" style="rounded=1;whiteSpace=wrap;html=1;fillColor=#dae8fc;strokeColor=#6c8ebf;" vertex="1" parent="1">
          <mxGeometry x="160" y="480" width="140" height="50" as="geometry" />
        </mxCell>
        <mxCell id="A80v5EPzU_mnToUGICA3-5" value="&lt;font face=&quot;Times New Roman&quot;&gt;bin_data=open(filename, &#39;rb&#39;).read()&lt;/font&gt;" style="rounded=1;whiteSpace=wrap;html=1;fillColor=#ffe6cc;strokeColor=#d79b00;" vertex="1" parent="1">
          <mxGeometry x="360" y="240" width="280" height="50" as="geometry" />
        </mxCell>
        <mxCell id="A80v5EPzU_mnToUGICA3-6" value="&lt;font face=&quot;Times New Roman&quot;&gt;magic_number, num_images, num_rows, num_cols= struct.unpack_from(fmt_header, bin_data, offset)&lt;/font&gt;" style="rounded=1;whiteSpace=wrap;html=1;fillColor=#ffe6cc;strokeColor=#d79b00;" vertex="1" parent="1">
          <mxGeometry x="360" y="320" width="280" height="50" as="geometry" />
        </mxCell>
        <mxCell id="A80v5EPzU_mnToUGICA3-7" value="&lt;font face=&quot;Times New Roman&quot;&gt;image_data= &lt;br&gt;struct.unpack_from(fmt_image, bin_data, offset)&lt;/font&gt;" style="rounded=1;whiteSpace=wrap;html=1;fillColor=#ffe6cc;strokeColor=#d79b00;" vertex="1" parent="1">
          <mxGeometry x="360" y="400" width="280" height="50" as="geometry" />
        </mxCell>
        <mxCell id="A80v5EPzU_mnToUGICA3-8" value="&lt;font face=&quot;Times New Roman&quot;&gt;images[i]= &lt;br&gt;numpy.array(&lt;/font&gt;&lt;span style=&quot;font-family: &amp;#34;times new roman&amp;#34;&quot;&gt;image_data&lt;/span&gt;&lt;font face=&quot;Times New Roman&quot;&gt;).reshape(num_rows, num_cols)&lt;br&gt;&lt;/font&gt;" style="rounded=1;whiteSpace=wrap;html=1;fillColor=#ffe6cc;strokeColor=#d79b00;" vertex="1" parent="1">
          <mxGeometry x="360" y="480" width="280" height="50" as="geometry" />
        </mxCell>
      </root>
    </mxGraphModel>
  </diagram>
  <diagram id="HoywJP3flcjMh7Ul8uY-" name="读取二进制标签">
    <mxGraphModel dx="652" dy="423" grid="1" gridSize="10" guides="1" tooltips="1" connect="1" arrows="1" fold="1" page="1" pageScale="1" pageWidth="827" pageHeight="1169" math="0" shadow="0">
      <root>
        <mxCell id="X3Dv5NpDs-U-8PTiN_Ib-0" />
        <mxCell id="X3Dv5NpDs-U-8PTiN_Ib-1" parent="X3Dv5NpDs-U-8PTiN_Ib-0" />
        <mxCell id="4PuTR9UljcaUnTH5M7NK-0" style="edgeStyle=orthogonalEdgeStyle;rounded=0;orthogonalLoop=1;jettySize=auto;html=1;exitX=1;exitY=0.5;exitDx=0;exitDy=0;entryX=0;entryY=0.5;entryDx=0;entryDy=0;strokeColor=#006666;" edge="1" parent="X3Dv5NpDs-U-8PTiN_Ib-1" source="4PuTR9UljcaUnTH5M7NK-2" target="4PuTR9UljcaUnTH5M7NK-11">
          <mxGeometry relative="1" as="geometry" />
        </mxCell>
        <mxCell id="4PuTR9UljcaUnTH5M7NK-1" style="edgeStyle=orthogonalEdgeStyle;rounded=0;orthogonalLoop=1;jettySize=auto;html=1;exitX=0.5;exitY=1;exitDx=0;exitDy=0;entryX=0.5;entryY=0;entryDx=0;entryDy=0;" edge="1" parent="X3Dv5NpDs-U-8PTiN_Ib-1" source="4PuTR9UljcaUnTH5M7NK-2" target="4PuTR9UljcaUnTH5M7NK-5">
          <mxGeometry relative="1" as="geometry" />
        </mxCell>
        <mxCell id="4PuTR9UljcaUnTH5M7NK-2" value="&lt;font face=&quot;Times New Roman&quot;&gt;打开二进制文件&lt;/font&gt;" style="rounded=1;whiteSpace=wrap;html=1;fillColor=#dae8fc;strokeColor=#6c8ebf;" vertex="1" parent="X3Dv5NpDs-U-8PTiN_Ib-1">
          <mxGeometry x="160" y="160" width="140" height="50" as="geometry" />
        </mxCell>
        <mxCell id="4PuTR9UljcaUnTH5M7NK-3" style="edgeStyle=orthogonalEdgeStyle;rounded=0;orthogonalLoop=1;jettySize=auto;html=1;exitX=1;exitY=0.5;exitDx=0;exitDy=0;entryX=0;entryY=0.5;entryDx=0;entryDy=0;strokeColor=#006666;" edge="1" parent="X3Dv5NpDs-U-8PTiN_Ib-1" source="4PuTR9UljcaUnTH5M7NK-5" target="4PuTR9UljcaUnTH5M7NK-12">
          <mxGeometry relative="1" as="geometry" />
        </mxCell>
        <mxCell id="4PuTR9UljcaUnTH5M7NK-4" style="edgeStyle=orthogonalEdgeStyle;rounded=0;orthogonalLoop=1;jettySize=auto;html=1;exitX=0.5;exitY=1;exitDx=0;exitDy=0;entryX=0.5;entryY=0;entryDx=0;entryDy=0;strokeColor=#000000;" edge="1" parent="X3Dv5NpDs-U-8PTiN_Ib-1" source="4PuTR9UljcaUnTH5M7NK-5" target="4PuTR9UljcaUnTH5M7NK-8">
          <mxGeometry relative="1" as="geometry" />
        </mxCell>
        <mxCell id="4PuTR9UljcaUnTH5M7NK-5" value="&lt;font face=&quot;Times New Roman&quot;&gt;数据解析&lt;br&gt;魔数、标签数量&lt;br&gt;&lt;/font&gt;" style="rounded=1;whiteSpace=wrap;html=1;fillColor=#dae8fc;strokeColor=#6c8ebf;" vertex="1" parent="X3Dv5NpDs-U-8PTiN_Ib-1">
          <mxGeometry x="160" y="240" width="140" height="50" as="geometry" />
        </mxCell>
        <mxCell id="4PuTR9UljcaUnTH5M7NK-6" style="edgeStyle=orthogonalEdgeStyle;rounded=0;orthogonalLoop=1;jettySize=auto;html=1;exitX=1;exitY=0.5;exitDx=0;exitDy=0;entryX=0;entryY=0.5;entryDx=0;entryDy=0;strokeColor=#006666;" edge="1" parent="X3Dv5NpDs-U-8PTiN_Ib-1" source="4PuTR9UljcaUnTH5M7NK-8" target="4PuTR9UljcaUnTH5M7NK-13">
          <mxGeometry relative="1" as="geometry" />
        </mxCell>
        <mxCell id="4PuTR9UljcaUnTH5M7NK-8" value="&lt;font face=&quot;Times New Roman&quot;&gt;数据解析&lt;br&gt;标签值&lt;br&gt;&lt;/font&gt;" style="rounded=1;whiteSpace=wrap;html=1;fillColor=#dae8fc;strokeColor=#6c8ebf;" vertex="1" parent="X3Dv5NpDs-U-8PTiN_Ib-1">
          <mxGeometry x="160" y="320" width="140" height="50" as="geometry" />
        </mxCell>
        <mxCell id="4PuTR9UljcaUnTH5M7NK-11" value="&lt;font face=&quot;Times New Roman&quot;&gt;bin_data=open(filename, &#39;rb&#39;).read()&lt;/font&gt;" style="rounded=1;whiteSpace=wrap;html=1;fillColor=#ffe6cc;strokeColor=#d79b00;" vertex="1" parent="X3Dv5NpDs-U-8PTiN_Ib-1">
          <mxGeometry x="360" y="160" width="250" height="50" as="geometry" />
        </mxCell>
        <mxCell id="4PuTR9UljcaUnTH5M7NK-12" value="&lt;font face=&quot;Times New Roman&quot;&gt;magic_number, num_labels= struct.unpack_from(fmt_header, bin_data, offset)&lt;/font&gt;" style="rounded=1;whiteSpace=wrap;html=1;fillColor=#ffe6cc;strokeColor=#d79b00;" vertex="1" parent="X3Dv5NpDs-U-8PTiN_Ib-1">
          <mxGeometry x="360" y="240" width="250" height="50" as="geometry" />
        </mxCell>
        <mxCell id="4PuTR9UljcaUnTH5M7NK-13" value="&lt;font face=&quot;Times New Roman&quot;&gt;label[i]= &lt;br&gt;struct.unpack_from(fmt_label, bin_data, offset)[0]&lt;/font&gt;" style="rounded=1;whiteSpace=wrap;html=1;fillColor=#ffe6cc;strokeColor=#d79b00;" vertex="1" parent="X3Dv5NpDs-U-8PTiN_Ib-1">
          <mxGeometry x="360" y="320" width="250" height="50" as="geometry" />
        </mxCell>
      </root>
    </mxGraphModel>
  </diagram>
</mxfile>
